<svg width="18" height="18" viewBox="0 0 18 18" fill="none" xmlns="http://www.w3.org/2000/svg">
<path d="M17.2014 5.61276C17.1921 4.91849 17.0621 4.23113 16.8173 3.58142C16.6049 3.03339 16.2806 2.53569 15.865 2.1201C15.4494 1.70451 14.9517 1.38019 14.4037 1.16784C13.7623 0.927083 13.0848 0.796901 12.3999 0.782839C11.518 0.743422 11.2384 0.732422 8.99994 0.732422C6.76144 0.732422 6.47453 0.732422 5.59911 0.782839C4.9145 0.797005 4.23726 0.927184 3.59619 1.16784C3.04808 1.38004 2.5503 1.70431 2.13469 2.11992C1.71908 2.53552 1.39481 3.03331 1.18261 3.58142C0.941371 4.22229 0.811472 4.89969 0.798526 5.58434C0.759109 6.46709 0.747192 6.74667 0.747192 8.98517C0.747192 11.2237 0.747192 11.5097 0.798526 12.386C0.812276 13.0717 0.941526 13.7482 1.18261 14.3908C1.39516 14.9387 1.71968 15.4363 2.13543 15.8517C2.55117 16.2671 3.049 16.5913 3.59711 16.8034C4.23642 17.0539 4.91378 17.1934 5.60003 17.2159C6.48278 17.2553 6.76236 17.2673 9.00086 17.2673C11.2394 17.2673 11.5263 17.2673 12.4017 17.2159C13.0866 17.2024 13.7642 17.0726 14.4055 16.8318C14.9534 16.6192 15.451 16.2948 15.8665 15.8793C16.2821 15.4637 16.6065 14.9661 16.8191 14.4183C17.0602 13.7766 17.1894 13.1001 17.2032 12.4135C17.2426 11.5317 17.2545 11.2521 17.2545 9.01267C17.2527 6.77417 17.2527 6.49001 17.2014 5.61276ZM8.99444 13.2183C6.65328 13.2183 4.75669 11.3218 4.75669 8.98059C4.75669 6.63942 6.65328 4.74284 8.99444 4.74284C10.1184 4.74284 11.1963 5.18931 11.991 5.98405C12.7857 6.77878 13.2322 7.85667 13.2322 8.98059C13.2322 10.1045 12.7857 11.1824 11.991 11.9771C11.1963 12.7719 10.1184 13.2183 8.99444 13.2183ZM13.4009 5.57425C13.2711 5.57438 13.1425 5.5489 13.0226 5.49928C12.9026 5.44966 12.7936 5.37688 12.7019 5.2851C12.6101 5.19331 12.5373 5.08433 12.4877 4.96439C12.438 4.84444 12.4126 4.71589 12.4127 4.58609C12.4127 4.45638 12.4382 4.32794 12.4879 4.20811C12.5375 4.08827 12.6103 3.97939 12.702 3.88767C12.7937 3.79596 12.9026 3.7232 13.0224 3.67357C13.1423 3.62393 13.2707 3.59838 13.4004 3.59838C13.5301 3.59838 13.6585 3.62393 13.7784 3.67357C13.8982 3.7232 14.0071 3.79596 14.0988 3.88767C14.1905 3.97939 14.2633 4.08827 14.3129 4.20811C14.3626 4.32794 14.3881 4.45638 14.3881 4.58609C14.3881 5.13242 13.9463 5.57425 13.4009 5.57425Z" fill="#DA1F39"/>
</svg>
